HIERARCHY
ROOT SpineBase
{
  OFFSET 0.000000 0.000000 0.000000
  CHANNELS 6 Xposition Yposition Zposition Zrotation Xrotation Yrotation
  JOINT SpineMid
  {
    OFFSET -0.000000 26.801567 0.000000
    CHANNELS 3 Zrotation Xrotation Yrotation
    JOINT SpineShoulder
    {
      OFFSET -0.173026 19.877391 -0.558965
      CHANNELS 3 Zrotation Xrotation Yrotation
      JOINT Neck
      {
        OFFSET -0.113799 6.566221 -0.454351
        CHANNELS 3 Zrotation Xrotation Yrotation
        JOINT Head
        {
          OFFSET -3.165282 13.980605 -4.029275
          CHANNELS 3 Zrotation Xrotation Yrotation
          End Site
          {
            OFFSET 0 0 0
          }
        }
      }
      JOINT ShoulderLeft
      {
        OFFSET -17.728713 -4.988415 3.838046
        CHANNELS 3 Zrotation Xrotation Yrotation
        JOINT ElbowLeft
        {
          OFFSET -1.861262 -25.331593 1.110371
          CHANNELS 3 Zrotation Xrotation Yrotation
          JOINT WristLeft
          {
            OFFSET 0.762017 -20.979619 -6.419652
            CHANNELS 3 Zrotation Xrotation Yrotation
            JOINT HandLeft
            {
              OFFSET 1.316078 -6.811867 -1.581191
              CHANNELS 3 Zrotation Xrotation Yrotation
              JOINT HandTipLeft
              {
                OFFSET 0.749386 -7.029441 -2.222091
                CHANNELS 3 Zrotation Xrotation Yrotation
                End Site
                {
                  OFFSET 0 0 0
                }
              }
              JOINT ThumbLeft
              {
                OFFSET 4.309071 0.826139 -0.642391
                CHANNELS 3 Zrotation Xrotation Yrotation
                End Site
                {
                  OFFSET 0 0 0
                }
              }
            }
          }
        }
      }
      JOINT ShoulderRight
      {
        OFFSET 13.661197 -2.902875 -8.143647
        CHANNELS 3 Zrotation Xrotation Yrotation
        JOINT ElbowRight
        {
          OFFSET 4.884125 -24.003763 0.136167
          CHANNELS 3 Zrotation Xrotation Yrotation
          JOINT WristRight
          {
            OFFSET -2.968094 -18.656996 -6.580219
            CHANNELS 3 Zrotation Xrotation Yrotation
            JOINT HandRight
            {
              OFFSET -3.109899 -7.369606 -0.105457
              CHANNELS 3 Zrotation Xrotation Yrotation
              JOINT HandTipRight
              {
                OFFSET -0.801087 -7.542981 -1.228989
                CHANNELS 3 Zrotation Xrotation Yrotation
                End Site
                {
                  OFFSET 0 0 0
                }
              }
              JOINT ThumbRight
              {
                OFFSET -3.142058 1.922214 0.557924
                CHANNELS 3 Zrotation Xrotation Yrotation
                End Site
                {
                  OFFSET 0 0 0
                }
              }
            }
          }
        }
      }
    }
  }
  JOINT HipLeft
  {
    OFFSET -6.793352 0.080587 -0.719319
    CHANNELS 3 Zrotation Xrotation Yrotation
    JOINT KneeLeft
    {
      OFFSET 4.875622 -36.350976 4.572739
      CHANNELS 3 Zrotation Xrotation Yrotation
      JOINT AnkleLeft
      {
        OFFSET 6.754547 -40.875697 9.795337
        CHANNELS 3 Zrotation Xrotation Yrotation
        JOINT FootLeft
        {
          OFFSET -3.499920 -4.291091 -10.359787
          CHANNELS 3 Zrotation Xrotation Yrotation
          End Site
          {
            OFFSET 0 0 0
          }
        }
      }
    }
  }
  JOINT HipRight
  {
    OFFSET 5.580145 1.138305 -5.431911
    CHANNELS 3 Zrotation Xrotation Yrotation
    JOINT KneeRight
    {
      OFFSET 8.739624 -36.007260 2.213554
      CHANNELS 3 Zrotation Xrotation Yrotation
      JOINT AnkleRight
      {
        OFFSET 6.826894 -41.171702 7.514800
        CHANNELS 3 Zrotation Xrotation Yrotation
        JOINT FootRight
        {
          OFFSET -0.214605 -7.356561 -4.805737
          CHANNELS 3 Zrotation Xrotation Yrotation
          End Site
          {
            OFFSET 0 0 0
          }
        }
      }
    }
  }
}
MOTION
Frames: 10
Frame Time: 0.033333
57.877816 83.597744 299.202270 0.000000 0.000000 20.849922 -0.000000 0.000000 -20.849922 -0.000000 0.000000 0.000000 -0.000000 0.000000 0.000000 0.000000 0.000000 0.000000 -0.000000 0.000000 0.000000 -0.000000 0.000000 0.000000 -0.000000 0.000000 0.000000 -0.000000 0.000000 0.000000 0.000000 0.000000 0.000000 0.000000 0.000000 0.000000 -0.000000 0.000000 0.000000 -0.000000 0.000000 0.000000 -0.000000 0.000000 0.000000 -0.000000 0.000000 0.000000 0.000000 0.000000 0.000000 0.000000 0.000000 0.000000 -0.000000 0.000000 -20.849922 -0.000000 0.000000 0.000000 -0.000000 0.000000 0.000000 0.000000 0.000000 0.000000 -0.000000 0.000000 -20.849922 -0.000000 0.000000 0.000000 -0.000000 0.000000 0.000000 0.000000 0.000000 0.000000
57.856092 83.604662 299.209546 0.023184 0.104223 20.633681 -0.058424 -0.089368 -20.633748 -0.000000 0.000000 0.000000 -0.000000 0.000000 0.000000 0.000000 0.000000 0.000000 -0.000000 0.000000 0.000000 -0.000000 0.000000 0.000000 -0.000000 0.000000 0.000000 0.534842 -2.062836 -0.381357 0.000000 0.000000 0.000000 0.000000 0.000000 0.000000 -0.000000 0.000000 0.000000 -0.000000 0.000000 0.000000 0.799653 1.743598 -0.761515 -0.776777 -1.753907 0.737456 0.000000 0.000000 0.000000 0.000000 0.000000 0.000000 -0.058424 -0.089368 -20.633748 -0.000000 0.000000 0.000000 -1.011533 3.661726 -0.473187 0.000000 0.000000 0.000000 -0.058424 -0.089368 -20.633748 -0.000000 0.000000 0.000000 -0.145517 0.964032 0.067786 0.000000 0.000000 0.000000
57.837889 83.608043 299.224435 0.044959 0.191997 20.469248 -0.109263 -0.164152 -20.469480 -0.000000 0.000000 0.000000 -0.000000 0.000000 0.000000 0.000000 0.000000 0.000000 -0.000000 0.000000 0.000000 -0.000000 0.000000 0.000000 -0.674136 0.528226 0.261665 1.699846 -4.428871 -0.963395 0.000000 0.000000 0.000000 0.000000 0.000000 0.000000 -0.000000 0.000000 0.000000 -0.000000 0.000000 0.000000 1.356409 2.915794 -1.290557 -0.448919 -2.754791 1.108565 0.000000 0.000000 0.000000 0.000000 0.000000 0.000000 -0.109263 -0.164152 -20.469480 -0.000000 0.000000 0.000000 -1.573405 5.783910 -0.744089 0.000000 0.000000 0.000000 -0.109263 -0.164152 -20.469480 -0.000000 0.000000 0.000000 -0.254888 1.753909 0.118052 0.000000 0.000000 0.000000
57.823205 83.607887 299.246938 0.065322 0.263295 20.356759 -0.152834 -0.224128 -20.357208 -0.000000 0.000000 0.000000 -0.578784 0.933384 0.049405 0.000000 0.000000 0.000000 -0.000000 0.000000 0.000000 -0.000000 0.000000 0.000000 -0.637847 0.696134 0.286336 2.132239 -6.140064 -1.263739 0.000000 0.000000 0.000000 0.000000 0.000000 0.000000 -0.000000 0.000000 0.000000 -0.000000 0.000000 0.000000 1.694195 3.605251 -1.608658 0.007111 -3.493732 1.330774 0.000000 0.000000 0.000000 0.000000 0.000000 0.000000 -0.152834 -0.224128 -20.357208 -0.000000 0.000000 0.000000 -1.789824 6.680217 -0.891787 0.000000 0.000000 0.000000 -0.152834 -0.224128 -20.357208 -0.000000 0.000000 0.000000 -0.328397 2.374674 0.150008 0.000000 0.000000 0.000000
57.812042 83.604194 299.277053 0.084267 0.318099 20.296301 -0.189377 -0.269118 -20.296980 -0.000000 0.000000 0.000000 -0.739993 1.190024 0.064136 0.000000 0.000000 0.000000 -0.000000 0.000000 0.000000 -0.000000 0.000000 0.000000 -0.370038 0.807330 0.244236 2.303298 -7.454664 -1.448047 0.000000 0.000000 0.000000 0.000000 0.000000 0.000000 -0.000000 0.000000 0.000000 -0.000000 0.000000 0.000000 1.822613 3.851933 -1.724080 0.882410 -3.871114 1.362520 0.000000 0.000000 0.000000 0.000000 0.000000 0.000000 -0.189377 -0.269118 -20.296980 -0.000000 0.000000 0.000000 -1.700458 6.478166 -0.946680 0.000000 0.000000 0.000000 -0.189377 -0.269118 -20.296980 -0.000000 0.000000 0.000000 -0.366290 2.830515 0.163097 0.000000 0.000000 0.000000
57.804399 83.596963 299.314782 0.101790 0.356396 20.287912 -0.219053 -0.298990 -20.288800 -0.000000 0.000000 0.000000 -0.884757 1.418551 0.077553 0.000000 0.000000 0.000000 -0.000000 0.000000 0.000000 -0.000000 0.000000 0.000000 0.122892 0.864467 0.137299 2.216247 -8.342091 -1.519093 0.000000 0.000000 0.000000 0.000000 0.000000 0.000000 -0.000000 0.000000 0.000000 -0.000000 0.000000 0.000000 1.736979 3.652301 -1.631582 2.178591 -3.891210 1.186497 0.000000 0.000000 0.000000 0.000000 0.000000 0.000000 -0.219053 -0.298990 -20.288800 -0.000000 0.000000 0.000000 -1.297136 5.150620 -0.906843 0.000000 0.000000 0.000000 -0.219053 -0.298990 -20.288800 -0.000000 0.000000 0.000000 -0.368766 3.124663 0.156972 0.000000 0.000000 0.000000
57.798682 83.586195 299.365095 0.106352 0.377016 20.316037 -0.230638 -0.316636 -20.317025 -0.000000 0.000000 0.000000 -1.003807 1.687705 0.108284 0.000000 0.000000 0.000000 -0.000000 0.000000 0.000000 -0.000000 0.000000 0.000000 1.147585 0.696760 -0.138287 1.868882 -8.382127 -1.433142 0.000000 0.000000 0.000000 0.000000 0.000000 0.000000 -0.000000 0.000000 0.000000 -0.000000 0.000000 0.000000 1.007196 2.810265 -1.229342 4.145827 -2.653660 0.584722 0.000000 0.000000 0.000000 0.000000 0.000000 0.000000 -0.230638 -0.316636 -20.317025 -0.000000 0.000000 0.000000 -0.565394 2.535137 -0.653011 0.000000 0.000000 0.000000 -0.230638 -0.316636 -20.317025 -0.000000 0.000000 0.000000 -0.167635 3.584077 0.009961 0.000000 0.000000 0.000000
57.796718 83.571110 299.418259 0.116011 0.384637 20.420309 -0.242926 -0.319988 -20.421376 -0.000000 0.000000 0.000000 -1.102118 1.849140 0.119650 0.000000 0.000000 0.000000 -0.000000 0.000000 0.000000 -0.000000 0.000000 0.000000 2.544339 0.833471 -0.445508 0.560298 -8.634561 -1.158495 0.000000 0.000000 0.000000 0.000000 0.000000 0.000000 -0.000000 0.000000 0.000000 -0.000000 0.000000 0.000000 0.098943 1.347771 -0.571459 6.826542 -1.607248 -0.350473 0.000000 0.000000 0.000000 0.000000 0.000000 0.000000 -0.242926 -0.319988 -20.421376 -0.000000 0.000000 0.000000 0.824294 -2.049479 -0.319218 0.000000 0.000000 0.000000 -0.242926 -0.319988 -20.421376 -0.000000 0.000000 0.000000 -0.064685 3.655439 -0.061078 0.000000 0.000000 0.000000
57.803029 83.554688 299.485817 0.138877 0.368214 20.592238 -0.259513 -0.295841 -20.593354 -0.000000 0.000000 0.000000 -1.204471 1.951267 0.116031 0.000000 0.000000 0.000000 -0.000000 0.000000 0.000000 -0.000000 0.000000 0.000000 3.662803 -0.206058 -0.878655 -1.191700 -6.415384 -0.450472 0.000000 0.000000 0.000000 0.000000 0.000000 0.000000 0.020548 -0.820989 -0.166775 -0.022940 0.820926 0.167087 -0.412329 -1.578755 0.665593 10.231187 -0.450812 -2.193309 0.000000 0.000000 0.000000 0.000000 0.000000 0.000000 -0.259513 -0.295841 -20.593354 -0.000000 0.000000 0.000000 3.828215 -11.308127 0.526991 0.000000 0.000000 0.000000 -0.259513 -0.295841 -20.593354 -0.000000 0.000000 0.000000 -0.087734 3.363980 -0.037552 0.000000 0.000000 0.000000
57.817824 83.538975 299.551919 0.179002 0.346119 20.789986 -0.290202 -0.260045 -20.791186 -0.000000 0.000000 0.000000 -1.344038 2.006742 0.091251 0.000000 0.000000 0.000000 -0.000000 0.000000 0.000000 -0.000000 0.000000 0.000000 4.499054 -0.386059 -1.096794 -1.513117 -6.298311 -0.358130 0.000000 0.000000 0.000000 0.000000 0.000000 0.000000 0.104257 -0.916720 -0.185064 0.093980 1.743947 -0.020899 -0.311541 -4.564730 1.775416 11.369403 0.320506 -3.516536 0.000000 0.000000 0.000000 0.000000 0.000000 0.000000 -0.290202 -0.260045 -20.791186 -0.000000 0.000000 0.000000 6.361013 -18.646377 1.820630 0.000000 0.000000 0.000000 -0.290202 -0.260045 -20.791186 -0.000000 0.000000 0.000000 -0.011905 2.802538 -0.072544 0.000000 0.000000 0.000000
